<svg width="30" height="29" viewBox="0 0 30 29" fill="none" xmlns="http://www.w3.org/2000/svg">
<g clip-path="url(#clip0_1_1717)">
<path d="M10.319 0.238281H1.59754C1.25367 0.238281 0.974609 0.517341 0.974609 0.861212V9.58257C0.974609 9.92644 1.25367 10.2055 1.59754 10.2055H10.3189C10.6628 10.2055 10.9418 9.92644 10.9418 9.58257V0.861212C10.9419 0.517341 10.6628 0.238281 10.319 0.238281ZM9.69597 8.95964H2.22053V1.4842H9.69597V8.95964Z" fill="black"/>
<path d="M10.319 18.9268H1.59754C1.25367 18.9268 0.974609 19.2058 0.974609 19.5497V28.2711C0.974609 28.615 1.25367 28.894 1.59754 28.894H10.3189C10.6628 28.894 10.9418 28.615 10.9418 28.2711V19.5497C10.9419 19.2058 10.6628 18.9268 10.319 18.9268ZM9.69597 27.6481H2.22053V20.1727H9.69597V27.6481Z" fill="black"/>
<path d="M29.0084 0.238281H20.287C19.9431 0.238281 19.6641 0.517341 19.6641 0.861212V9.58257C19.6641 9.92644 19.9431 10.2055 20.287 10.2055H29.0084C29.3523 10.2055 29.6313 9.92644 29.6313 9.58257V0.861212C29.6313 0.517341 29.3523 0.238281 29.0084 0.238281ZM28.3854 8.95964H20.91V1.4842H28.3854V8.95964Z" fill="black"/>
<path d="M16.5485 11.4513H15.9255V9.5824C15.9255 9.23853 15.6465 8.95947 15.3026 8.95947C14.9587 8.95947 14.6797 9.23853 14.6797 9.5824V12.0742C14.6797 12.4181 14.9587 12.6972 15.3026 12.6972H15.9255V14.566C15.9255 14.9099 16.2046 15.1889 16.5485 15.1889C16.8923 15.1889 17.1714 14.9099 17.1714 14.566V12.0742C17.1714 11.7303 16.8923 11.4513 16.5485 11.4513Z" fill="black"/>
<path d="M5.33564 13.9434H4.08973C3.74586 13.9434 3.4668 14.2224 3.4668 14.5663V15.8122C3.4668 16.1561 3.74586 16.4351 4.08973 16.4351C4.4336 16.4351 4.71266 16.1561 4.71266 15.8122V15.1893H5.33559C5.67946 15.1893 5.95852 14.9102 5.95852 14.5663C5.95852 14.2225 5.67951 13.9434 5.33564 13.9434Z" fill="black"/>
<path d="M16.5491 17.6811H15.9262V17.0581C15.9262 16.7143 15.6471 16.4352 15.3032 16.4352H13.4344V14.5663C13.4344 14.2224 13.1553 13.9434 12.8114 13.9434H9.07369C8.72982 13.9434 8.45076 14.2224 8.45076 14.5663V16.4351H6.58191C6.23804 16.4351 5.95898 16.7142 5.95898 17.0581C5.95898 17.4019 6.23804 17.681 6.58191 17.681H9.07375C9.41762 17.681 9.69668 17.4019 9.69668 17.0581V15.1892H12.1885V17.0581C12.1885 17.4019 12.4676 17.681 12.8114 17.681H14.6803V18.3039C14.6803 18.6478 14.9593 18.9269 15.3032 18.9269H15.9262V20.7957C15.9262 21.1396 16.2052 21.4186 16.5491 21.4186C16.893 21.4186 17.172 21.1396 17.172 20.7957V18.3039C17.172 17.9602 16.893 17.6811 16.5491 17.6811Z" fill="black"/>
<path d="M21.5321 23.9104H15.9255V23.2875C15.9255 22.9436 15.6465 22.6646 15.3026 22.6646C14.9587 22.6646 14.6797 22.9436 14.6797 23.2875V24.5334C14.6797 24.8773 14.9587 25.1563 15.3026 25.1563H21.5321C21.876 25.1563 22.1551 24.8773 22.1551 24.5334C22.1551 24.1895 21.876 23.9104 21.5321 23.9104Z" fill="black"/>
<path d="M19.0409 21.4189C18.697 21.4189 18.418 21.698 18.418 22.0419V24.5337C18.418 24.8776 18.697 25.1566 19.0409 25.1566C19.3848 25.1566 19.6638 24.8776 19.6638 24.5337V22.0419C19.6638 21.698 19.3848 21.4189 19.0409 21.4189Z" fill="black"/>
<path d="M16.5487 23.9106C16.2048 23.9106 15.9258 24.1897 15.9258 24.5336V25.7795C15.9258 26.1234 16.2048 26.4024 16.5487 26.4024C16.8926 26.4024 17.1716 26.1234 17.1716 25.7795V24.5336C17.1716 24.1897 16.8926 23.9106 16.5487 23.9106Z" fill="black"/>
<path d="M22.7782 27.6484H16.5487C16.2048 27.6484 15.9258 27.9275 15.9258 28.2714C15.9258 28.6152 16.2048 28.8943 16.5487 28.8943H22.7782C23.1221 28.8943 23.4012 28.6152 23.4012 28.2714C23.4012 27.9275 23.1221 27.6484 22.7782 27.6484Z" fill="black"/>
<path d="M25.2694 22.6646C24.9255 22.6646 24.6465 22.9436 24.6465 23.2875V28.2711C24.6465 28.615 24.9255 28.894 25.2694 28.894C25.6133 28.894 25.8923 28.615 25.8923 28.2711V23.2875C25.8923 22.9436 25.6133 22.6646 25.2694 22.6646Z" fill="black"/>
<path d="M25.2692 25.1562H24.0233C23.6794 25.1562 23.4004 25.4353 23.4004 25.7792C23.4004 26.123 23.6794 26.4021 24.0233 26.4021H25.2692C25.6131 26.4021 25.8922 26.123 25.8922 25.7792C25.8922 25.4353 25.6131 25.1562 25.2692 25.1562Z" fill="black"/>
<path d="M12.8104 22.6646C12.4666 22.6646 12.1875 22.9436 12.1875 23.2875V28.2711C12.1875 28.615 12.4666 28.894 12.8104 28.894C13.1543 28.894 13.4334 28.615 13.4334 28.2711V23.2875C13.4334 22.9436 13.1543 22.6646 12.8104 22.6646Z" fill="black"/>
<path d="M14.0563 26.4023H12.8104C12.4666 26.4023 12.1875 26.6814 12.1875 27.0253C12.1875 27.3691 12.4666 27.6482 12.8104 27.6482H14.0563C14.4002 27.6482 14.6793 27.3691 14.6793 27.0253C14.6793 26.6814 14.4002 26.4023 14.0563 26.4023Z" fill="black"/>
<path d="M20.287 26.4023C19.9431 26.4023 19.6641 26.6814 19.6641 27.0253V28.2712C19.6641 28.6151 19.9431 28.8941 20.287 28.8941C20.6309 28.8941 20.9099 28.6151 20.9099 28.2712V27.0253C20.91 26.6815 20.6309 26.4023 20.287 26.4023Z" fill="black"/>
<path d="M26.5163 18.9271H25.8934V17.0582C25.8934 16.7144 25.6143 16.4353 25.2704 16.4353H23.4016V15.8124C23.4016 15.4685 23.1225 15.1895 22.7786 15.1895H19.0409C18.697 15.1895 18.418 15.4685 18.418 15.8124C18.418 16.1563 18.697 16.4353 19.0409 16.4353H22.1557V17.0582C22.1557 17.4021 22.4347 17.6812 22.7786 17.6812H24.6474V19.55C24.6474 19.8939 24.9265 20.173 25.2704 20.173H25.8933V22.0418C25.8933 22.3857 26.1724 22.6647 26.5162 22.6647C26.8601 22.6647 27.1392 22.3857 27.1392 22.0418V19.55C27.1392 19.2062 26.8602 18.9271 26.5163 18.9271Z" fill="black"/>
<path d="M20.287 12.6973C19.9431 12.6973 19.6641 12.9763 19.6641 13.3202V15.812C19.6641 16.1559 19.9431 16.435 20.287 16.435C20.6309 16.435 20.9099 16.1559 20.9099 15.812V13.3202C20.91 12.9763 20.6309 12.6973 20.287 12.6973Z" fill="black"/>
<path d="M26.5153 13.9434H25.8923V12.0746C25.8923 11.7307 25.6133 11.4517 25.2694 11.4517C24.9255 11.4517 24.6465 11.7307 24.6465 12.0746V14.5664C24.6465 14.9102 24.9255 15.1893 25.2694 15.1893H25.8923V15.8122C25.8923 16.1561 26.1714 16.4352 26.5153 16.4352C26.8591 16.4352 27.1382 16.1561 27.1382 15.8122V14.5664C27.1382 14.2225 26.8591 13.9434 26.5153 13.9434Z" fill="black"/>
<path d="M29.0075 11.4517H27.7616C27.4177 11.4517 27.1387 11.7307 27.1387 12.0746C27.1387 12.4185 27.4177 12.6975 27.7616 12.6975H28.3845V14.5664C28.3845 14.9103 28.6636 15.1894 29.0075 15.1894C29.3513 15.1894 29.6304 14.9103 29.6304 14.5664V12.0746C29.6304 11.7307 29.3514 11.4517 29.0075 11.4517Z" fill="black"/>
<path d="M29.0077 16.4351C28.6638 16.4351 28.3848 16.7141 28.3848 17.058V20.7957C28.3848 21.1396 28.6638 21.4187 29.0077 21.4187C29.3516 21.4187 29.6306 21.1396 29.6306 20.7957V17.058C29.6306 16.7142 29.3516 16.4351 29.0077 16.4351Z" fill="black"/>
<path d="M29.0075 23.9106H27.7616C27.4177 23.9106 27.1387 24.1897 27.1387 24.5336C27.1387 24.8774 27.4177 25.1565 27.7616 25.1565H29.0075C29.3514 25.1565 29.6304 24.8774 29.6304 24.5336C29.6304 24.1897 29.3514 23.9106 29.0075 23.9106Z" fill="black"/>
<path d="M29.0075 27.6484H27.7616C27.4177 27.6484 27.1387 27.9275 27.1387 28.2714C27.1387 28.6152 27.4177 28.8943 27.7616 28.8943H29.0075C29.3514 28.8943 29.6304 28.6152 29.6304 28.2714C29.6304 27.9275 29.3514 27.6484 29.0075 27.6484Z" fill="black"/>
<path d="M17.7945 5.22189H15.9255V3.97603H16.5485C16.8924 3.97603 17.1714 3.69697 17.1714 3.3531V1.4842H17.7943C18.1382 1.4842 18.4173 1.20514 18.4173 0.861268C18.4173 0.517397 18.1383 0.238281 17.7945 0.238281H16.5485C16.2047 0.238281 15.9256 0.517341 15.9256 0.861212V2.73006H15.3026C14.9587 2.73006 14.6797 3.00912 14.6797 3.35299V5.84482C14.6797 6.18869 14.9587 6.46775 15.3026 6.46775H17.1715V9.58252C17.1715 9.92639 17.4505 10.2054 17.7944 10.2054C18.1383 10.2054 18.4173 9.92639 18.4173 9.58252V5.84477C18.4174 5.50101 18.1383 5.22189 17.7945 5.22189Z" fill="black"/>
<path d="M14.0563 7.71359H13.4334V3.35291C13.4334 3.00904 13.1543 2.72998 12.8104 2.72998C12.4666 2.72998 12.1875 3.00904 12.1875 3.35291V8.33658C12.1875 8.68045 12.4666 8.95951 12.8104 8.95951H14.0563C14.4002 8.95951 14.6793 8.68045 14.6793 8.33658C14.6793 7.99271 14.4002 7.71359 14.0563 7.71359Z" fill="black"/>
<path d="M14.0563 0.238281H12.8104C12.4666 0.238281 12.1875 0.517341 12.1875 0.861212C12.1875 1.20508 12.4666 1.48414 12.8104 1.48414H14.0563C14.4002 1.48414 14.6793 1.20508 14.6793 0.861212C14.6793 0.517341 14.4002 0.238281 14.0563 0.238281Z" fill="black"/>
<path d="M12.81 7.71387C12.4661 7.71387 12.1871 7.99293 12.1871 8.3368V11.4516H10.3182C9.97437 11.4516 9.69531 11.7306 9.69531 12.0745C9.69531 12.4184 9.97437 12.6974 10.3182 12.6974H12.8101C13.1539 12.6974 13.433 12.4184 13.433 12.0745V8.33674C13.433 7.99298 13.1539 7.71387 12.81 7.71387Z" fill="black"/>
<path d="M7.82783 11.4517H6.58192C6.23804 11.4517 5.95898 11.7307 5.95898 12.0746C5.95898 12.4185 6.23804 12.6975 6.58192 12.6975H7.82783C8.1717 12.6975 8.45076 12.4185 8.45076 12.0746C8.45076 11.7307 8.1717 11.4517 7.82783 11.4517Z" fill="black"/>
<path d="M4.08937 11.4517H1.59754C1.25367 11.4517 0.974609 11.7307 0.974609 12.0746V13.3205C0.974609 13.6644 1.25367 13.9434 1.59754 13.9434C1.94141 13.9434 2.22047 13.6644 2.22047 13.3205V12.6976H4.08932C4.43319 12.6976 4.71225 12.4185 4.71225 12.0746C4.71225 11.7308 4.43324 11.4517 4.08937 11.4517Z" fill="black"/>
<path d="M1.59754 15.189C1.25367 15.189 0.974609 15.468 0.974609 15.8119V17.0578C0.974609 17.4017 1.25367 17.6807 1.59754 17.6807C1.94141 17.6807 2.22047 17.4017 2.22047 17.0578V15.8119C2.22053 15.4681 1.94141 15.189 1.59754 15.189Z" fill="black"/>
<path d="M22.777 11.4517H21.5311C21.1873 11.4517 20.9082 11.7307 20.9082 12.0746C20.9082 12.4185 21.1873 12.6975 21.5311 12.6975H22.1541V13.3205C22.1541 13.6643 22.4331 13.9434 22.777 13.9434C23.1209 13.9434 23.3999 13.6643 23.3999 13.3205V12.0745C23.4 11.7307 23.1209 11.4517 22.777 11.4517Z" fill="black"/>
<path d="M17.7946 11.4517H16.5487C16.2048 11.4517 15.9258 11.7307 15.9258 12.0746C15.9258 12.4185 16.2048 12.6975 16.5487 12.6975H17.7946C18.1385 12.6975 18.4176 12.4185 18.4176 12.0746C18.4176 11.7307 18.1385 11.4517 17.7946 11.4517Z" fill="black"/>
<path d="M22.7786 18.927H20.9097V18.3041C20.9097 17.9602 20.6307 17.6812 20.2868 17.6812H19.0409C18.697 17.6812 18.418 17.9602 18.418 18.3041C18.418 18.648 18.697 18.927 19.0409 18.927H19.6638V19.5499C19.6638 19.8938 19.9429 20.1729 20.2868 20.1729H22.1556V21.4188H21.5327C21.1888 21.4188 20.9097 21.6978 20.9097 22.0417C20.9097 22.3856 21.1888 22.6646 21.5327 22.6646H22.7786C23.1225 22.6646 23.4015 22.3856 23.4015 22.0417V19.5499C23.4016 19.2061 23.1225 18.927 22.7786 18.927Z" fill="black"/>
<path d="M7.82759 3.35303H4.08984V7.09078H7.82759V3.35303Z" fill="black"/>
<path d="M3.4668 2.72998V7.71365H8.45046V2.72998H3.4668ZM7.20449 6.46767H4.71271V3.9759H7.20455V6.46767H7.20449Z" fill="black"/>
<path d="M7.82759 22.0415H4.08984V25.7793H7.82759V22.0415Z" fill="black"/>
<path d="M3.4668 21.4189V26.4026H8.45046V21.4189H3.4668ZM7.20449 25.1566H4.71271V22.6648H7.20455V25.1566H7.20449Z" fill="black"/>
<path d="M26.5151 3.35303H22.7773V7.09078H26.5151V3.35303Z" fill="black"/>
<path d="M22.1543 2.72998V7.71365H27.1379V2.72998H22.1543ZM25.892 6.46767H23.4002V3.9759H25.892V6.46767Z" fill="black"/>
<path d="M14.0563 20.1729H12.8104C12.4666 20.1729 12.1875 20.452 12.1875 20.7958C12.1875 21.1396 12.4666 21.4187 12.8104 21.4187H14.0563C14.4002 21.4187 14.6793 21.1397 14.6793 20.7958C14.6793 20.4519 14.4002 20.1729 14.0563 20.1729Z" fill="black"/>
<path d="M29.0077 22.6646C28.6638 22.6646 28.3848 22.9436 28.3848 23.2875V25.7793C28.3848 26.1232 28.6638 26.4022 29.0077 26.4022C29.3516 26.4022 29.6306 26.1232 29.6306 25.7793V23.2875C29.6306 22.9436 29.3516 22.6646 29.0077 22.6646Z" fill="black"/>
</g>
<defs>
<clipPath id="clip0_1_1717">
<rect width="28.6559" height="28.6559" fill="white" transform="translate(0.974609 0.238281)"/>
</clipPath>
</defs>
</svg>
