<svg width="30" height="30" viewBox="0 0 30 30" fill="none" xmlns="http://www.w3.org/2000/svg">
<g clip-path="url(#clip0_9_916)">
<path d="M15 30C23.2843 30 30 23.2843 30 15C30 6.71573 23.2843 0 15 0C6.71573 0 0 6.71573 0 15C0 23.2843 6.71573 30 15 30Z" fill="#DA251D"/>
<path d="M21.1252 4.5H8.9408C7.94846 4.5 7.07715 5.31635 7.07715 6.28264V24.3071C7.07715 24.6306 7.16717 24.9001 7.31226 25.1084C7.39655 25.2298 7.50908 25.3289 7.64017 25.3971C7.77125 25.4653 7.91696 25.5006 8.06473 25.5C8.34797 25.5 8.64954 25.3739 8.92802 25.136L14.3793 20.5076C14.5477 20.3638 14.7895 20.2814 15.041 20.2814C15.2923 20.2814 15.5337 20.3638 15.7026 20.508L21.1356 25.1354C21.4151 25.3739 21.6959 25.5001 21.9786 25.5001C22.4568 25.5001 22.9228 25.1313 22.9228 24.3072V6.28264C22.9228 5.31635 22.1176 4.5 21.1252 4.5Z" fill="white"/>
</g>
<defs>
<clipPath id="clip0_9_916">
<rect width="30" height="30" fill="white"/>
</clipPath>
</defs>
</svg>
