<svg width="30" height="30" viewBox="0 0 30 30" fill="none" xmlns="http://www.w3.org/2000/svg">
<g clip-path="url(#clip0_9_920)">
<path d="M15 30C23.2843 30 30 23.2843 30 15C30 6.71573 23.2843 0 15 0C6.71573 0 0 6.71573 0 15C0 23.2843 6.71573 30 15 30Z" fill="#DA251D"/>
<path d="M22.4246 6.12771C22.1843 5.8874 21.7948 5.88748 21.5545 6.12771C21.3142 6.36798 21.3142 6.75751 21.5545 6.99778C23.3053 8.74853 24.2695 11.0763 24.2695 13.5524C24.2695 13.8921 24.545 14.1676 24.8848 14.1676C25.2246 14.1676 25.5 13.8921 25.5 13.5524C25.5 10.7476 24.4078 8.11086 22.4246 6.12771ZM8.44542 6.12775C8.20511 5.88744 7.81562 5.88752 7.57531 6.12775C5.5922 8.11102 4.5 10.7478 4.5 13.5524C4.5 13.8921 4.77546 14.1676 5.11523 14.1676C5.45501 14.1676 5.73047 13.8921 5.73047 13.5524C5.73047 11.0765 6.69466 8.74865 8.44542 6.99782C8.68569 6.75755 8.68569 6.36802 8.44542 6.12775ZM19.6904 7.99142C19.4502 8.23169 19.4502 8.62122 19.6905 8.86153C20.9435 10.1144 21.6335 11.7803 21.6335 13.5524C21.6335 13.8921 21.909 14.1676 22.2488 14.1676C22.5886 14.1676 22.864 13.8921 22.864 13.5524C22.864 11.4516 22.046 9.47672 20.5605 7.99138C20.3203 7.75115 19.9307 7.75119 19.6904 7.99142ZM10.3092 7.99171C10.0689 7.75148 9.67941 7.75152 9.43914 7.99175C7.95388 9.47717 7.13591 11.452 7.13591 13.5524C7.13591 13.8921 7.41141 14.1676 7.75114 14.1676C8.09096 14.1676 8.36638 13.8921 8.36638 13.5524C8.36638 11.7806 9.05638 10.1148 10.3092 8.86181C10.5495 8.6215 10.5495 8.23194 10.3092 7.99171ZM20.2281 18.02V14.8703C20.2281 13.7215 19.8624 12.6313 19.1704 11.7177C18.592 10.9541 17.8032 10.3576 16.917 10.0066C16.7936 9.05865 15.981 8.32422 15 8.32422C14.019 8.32422 13.2063 9.05865 13.083 10.0066C12.1968 10.3576 11.408 10.9541 10.8297 11.7177C10.1376 12.6313 9.77186 13.7215 9.77186 14.8703V18.02L8.51888 20.526C8.47198 20.6198 8.44984 20.7241 8.45455 20.8288C8.45926 20.9336 8.49068 21.0354 8.54581 21.1246C8.60094 21.2138 8.67796 21.2875 8.76955 21.3385C8.86115 21.3896 8.96427 21.4164 9.06914 21.4164H20.9309C21.0357 21.4164 21.1389 21.3896 21.2305 21.3386C21.3221 21.2875 21.3991 21.2139 21.4543 21.1247C21.5094 21.0355 21.5408 20.9336 21.5455 20.8289C21.5503 20.7241 21.5281 20.6198 21.4812 20.526L20.2281 18.02ZM15 24.0524C16.1076 24.0524 17.0871 23.4952 17.6744 22.6468H12.3256C12.9129 23.4952 13.8924 24.0524 15 24.0524Z" fill="white"/>
</g>
<defs>
<clipPath id="clip0_9_920">
<rect width="30" height="30" fill="white"/>
</clipPath>
</defs>
</svg>
